<svg width="25" height="26" viewBox="0 0 25 26" fill="none" xmlns="http://www.w3.org/2000/svg">
<g clip-path="url(#clip0)">
<path d="M11.3764 0.191305C10.7003 0.484674 10.2156 0.880085 9.89676 1.39029C9.7437 1.64539 8.35338 4.31122 6.82277 7.3342C5.29215 10.3444 3.8253 13.2143 3.5702 13.7118C3.02173 14.7322 0.955392 18.8266 0.623758 19.5409L0.394165 20.0128L1.75897 20.4593C5.58552 21.6965 7.84318 22.0792 11.6315 22.1557C16.134 22.2577 18.4682 21.9133 23.1749 20.4593C24.3101 20.1021 24.5907 19.9746 24.5269 19.8215C24.4887 19.7067 23.4938 17.7424 22.3203 15.4592C21.1468 13.1633 19.0932 9.10716 17.7412 6.44133C16.3764 3.77551 15.1136 1.39029 14.9223 1.14794C14.3993 0.47192 13.3917 -2.09808e-05 12.5116 -2.09808e-05C12.1162 0.0127335 11.606 0.0892639 11.3764 0.191305Z" fill="#EE5253"/>
<path d="M0.062557 20.8929C-0.0522395 21.0077 -0.00121882 21.8878 0.151843 22.3343C0.496232 23.3547 1.14675 23.8011 3.13655 24.3623C6.17228 25.2169 9.67995 25.5868 13.6468 25.472C17.0142 25.37 19.1953 25.0894 21.6443 24.4261C23.6979 23.8649 24.3229 23.495 24.7438 22.5511C24.9861 22.0026 25.0882 20.9822 24.9096 20.8802C24.8458 20.8419 24.1443 21.046 23.3407 21.3139C21.4785 21.9516 19.3994 22.5001 17.4223 22.8572C16.083 23.1123 15.4325 23.1506 12.4988 23.1506C9.83301 23.1506 8.85086 23.0996 7.8432 22.921C6.09575 22.6149 3.96564 22.0664 1.88654 21.3904C0.917153 21.0843 0.100822 20.8547 0.062557 20.8929Z" fill="#138001"/>
<path d="M11.3632 5.94044C11.3632 5.75254 11.3874 5.55564 11.4716 5.41771C11.4998 5.37161 11.4999 5.35918 11.5406 5.35918C11.562 5.35918 11.6055 5.34434 11.6071 5.39551C11.6097 5.4755 11.5401 5.64401 11.5073 5.7043C11.4816 5.75181 11.4704 5.80366 11.4408 5.84962C11.41 5.89738 11.3819 5.94608 11.3521 5.99494" stroke="black" stroke-linecap="round"/>
<path d="M5.34609 17.1464C5.34609 17.3343 5.32187 17.5312 5.23767 17.6691C5.20953 17.7152 5.2094 17.7277 5.16867 17.7277C5.14725 17.7277 5.10379 17.7425 5.10214 17.6913C5.09957 17.6114 5.16923 17.4428 5.20194 17.3826C5.22772 17.335 5.23885 17.2832 5.26847 17.2372C5.29924 17.1895 5.32735 17.1408 5.35718 17.0919" stroke="black" stroke-linecap="round"/>
<path d="M19.5265 18.9507C19.5265 18.7628 19.5507 18.5659 19.6349 18.428C19.663 18.3819 19.6632 18.3694 19.7039 18.3694C19.7253 18.3694 19.7688 18.3546 19.7704 18.4058C19.773 18.4858 19.7033 18.6543 19.6706 18.7146C19.6448 18.7621 19.6337 18.8139 19.6041 18.8599C19.5733 18.9076 19.5452 18.9563 19.5154 19.0052" stroke="black" stroke-linecap="round"/>
<path d="M12.0121 19.1158C11.8682 19.2366 11.7018 19.3446 11.542 19.3688C11.4886 19.3768 11.479 19.3847 11.4528 19.3535C11.439 19.3371 11.3997 19.3133 11.4379 19.2792C11.4975 19.2258 11.6714 19.1709 11.7386 19.1572C11.7915 19.1464 11.8384 19.1216 11.8927 19.1147C11.949 19.1076 12.0044 19.0978 12.061 19.0893" stroke="black" stroke-linecap="round"/>
<path d="M16.1445 14.5298C15.9566 14.5298 15.7597 14.5056 15.6218 14.4214C15.5757 14.3932 15.5633 14.3931 15.5633 14.3524C15.5633 14.331 15.5484 14.2875 15.5996 14.2859C15.6796 14.2833 15.8481 14.3529 15.9084 14.3857C15.9559 14.4114 16.0078 14.4226 16.0537 14.4522C16.1015 14.483 16.1502 14.5111 16.199 14.5409" stroke="black" stroke-linecap="round"/>
<path d="M8.82144 13.9692C8.85407 13.7842 8.91211 13.5945 9.01899 13.4732C9.0547 13.4327 9.05698 13.4205 9.0971 13.4276C9.11819 13.4313 9.16357 13.4242 9.15631 13.4749C9.14495 13.5541 9.04709 13.708 9.00441 13.7617C8.97077 13.804 8.9508 13.8531 8.91365 13.8932C8.87505 13.9349 8.83892 13.978 8.80106 14.021" stroke="black" stroke-linecap="round"/>
<path d="M11.9903 10.5795C11.8276 10.4856 11.6691 10.3661 11.5918 10.2243C11.5659 10.1768 11.5552 10.1705 11.5756 10.1352C11.5863 10.1167 11.5952 10.0716 11.6403 10.0958C11.7109 10.1336 11.822 10.2781 11.8579 10.3366C11.8861 10.3827 11.9254 10.4183 11.9504 10.4669C11.9764 10.5174 12.0045 10.5661 12.0319 10.6164" stroke="black" stroke-linecap="round"/>
<path d="M15.3523 8.79041C15.2584 8.62768 15.1809 8.44505 15.1848 8.2835C15.1862 8.22951 15.1801 8.21868 15.2153 8.19831C15.2339 8.1876 15.2641 8.15302 15.2911 8.19651C15.3333 8.2645 15.3573 8.44526 15.3591 8.51383C15.3605 8.56787 15.3768 8.61833 15.3741 8.67295C15.3714 8.72969 15.3714 8.78592 15.37 8.84315" stroke="black" stroke-linecap="round"/>
</g>
<defs>
<clipPath id="clip0">
<rect width="25" height="25.4924" fill="white" transform="matrix(1 0 0 -1 0 25.4924)"/>
</clipPath>
</defs>
</svg>
