<svg width="25" height="26" viewBox="0 0 25 26" fill="none" xmlns="http://www.w3.org/2000/svg">
<g clip-path="url(#clip0)">
<path d="M11.5795 0.648291L11.5754 0.650038C10.9749 0.910648 10.5785 1.24505 10.3234 1.65118C10.171 1.90847 8.79746 4.54116 7.26888 7.56012L7.26849 7.56088C5.73769 10.5715 4.27057 13.4419 4.01514 13.94L4.01522 13.94L4.01064 13.9486C3.4741 14.9468 1.46846 18.9201 1.09402 19.7157L1.91282 19.9836C1.91309 19.9837 1.91336 19.9837 1.91363 19.9838C5.69535 21.2065 7.9046 21.5804 11.6416 21.6559L11.6428 21.6559C16.0862 21.7566 18.3667 21.4214 23.0261 19.982C23.4391 19.852 23.7205 19.758 23.9085 19.6861C23.9003 19.6695 23.8918 19.6524 23.8831 19.6347C23.767 19.4005 23.6031 19.0743 23.4032 18.6793C23.0036 17.8897 22.462 16.8288 21.8756 15.6879L21.8751 15.6868C20.9481 13.8732 19.4722 10.9617 18.2268 8.50491C17.8952 7.85074 17.5799 7.22881 17.2957 6.66841C16.6142 5.33732 15.9588 4.07728 15.4502 3.12058C15.1957 2.64186 14.979 2.2409 14.8147 1.94562C14.7324 1.79775 14.6645 1.67872 14.6123 1.59068C14.5564 1.4963 14.5317 1.46047 14.53 1.45797L14.5299 1.45783L14.5299 1.45784L14.5268 1.45394C14.1062 0.910223 13.2535 0.503027 12.5197 0.500057C12.3463 0.506054 12.1448 0.525993 11.9621 0.555725C11.7653 0.587763 11.633 0.624477 11.5795 0.648291Z" stroke="#CCCCCC"/>
<path d="M0.062557 20.8929C-0.0522395 21.0077 -0.00121882 21.8878 0.151843 22.3343C0.496232 23.3547 1.14675 23.8011 3.13655 24.3623C6.17228 25.2169 9.67995 25.5868 13.6468 25.472C17.0142 25.37 19.1953 25.0894 21.6443 24.4261C23.6979 23.8649 24.3229 23.495 24.7438 22.5511C24.9861 22.0026 25.0882 20.9822 24.9096 20.8802C24.8458 20.8419 24.1443 21.046 23.3407 21.3139C21.4785 21.9516 19.3994 22.5001 17.4223 22.8572C16.083 23.1123 15.4325 23.1506 12.4988 23.1506C9.83301 23.1506 8.85086 23.0996 7.8432 22.921C6.09575 22.6149 3.96564 22.0664 1.88654 21.3904C0.917153 21.0843 0.100822 20.8547 0.062557 20.8929Z" fill="#CCCCCC"/>
<path d="M11.3632 5.94044C11.3632 5.75254 11.3874 5.55564 11.4716 5.41771C11.4997 5.37161 11.4999 5.35918 11.5406 5.35918C11.562 5.35918 11.6055 5.34434 11.6071 5.39551C11.6097 5.4755 11.54 5.64401 11.5073 5.7043C11.4816 5.75181 11.4704 5.80366 11.4408 5.84962C11.41 5.89738 11.3819 5.94608 11.3521 5.99494" stroke="#CCCCCC" stroke-linecap="round"/>
<path d="M5.34607 17.1463C5.34607 17.3343 5.32185 17.5312 5.23765 17.6691C5.20951 17.7152 5.20939 17.7276 5.16866 17.7276C5.14724 17.7276 5.10377 17.7425 5.10213 17.6913C5.09956 17.6113 5.16921 17.4428 5.20192 17.3825C5.2277 17.335 5.23884 17.2831 5.26845 17.2372C5.29923 17.1894 5.32734 17.1407 5.35716 17.0919" stroke="#CCCCCC" stroke-linecap="round"/>
<path d="M19.5265 18.9507C19.5265 18.7628 19.5507 18.5659 19.6349 18.428C19.663 18.3819 19.6632 18.3694 19.7039 18.3694C19.7253 18.3694 19.7688 18.3546 19.7704 18.4058C19.773 18.4858 19.7033 18.6543 19.6706 18.7146C19.6449 18.7621 19.6337 18.8139 19.6041 18.8599C19.5733 18.9076 19.5452 18.9563 19.5154 19.0052" stroke="#CCCCCC" stroke-linecap="round"/>
<path d="M12.0121 19.1157C11.8682 19.2365 11.7018 19.3445 11.542 19.3687C11.4886 19.3768 11.479 19.3847 11.4528 19.3535C11.4391 19.337 11.3998 19.3133 11.4379 19.2791C11.4975 19.2258 11.6714 19.1708 11.7386 19.1571C11.7916 19.1463 11.8384 19.1215 11.8927 19.1147C11.949 19.1075 12.0044 19.0978 12.061 19.0892" stroke="#CCCCCC" stroke-linecap="round"/>
<path d="M16.1446 14.5298C15.9567 14.5298 15.7598 14.5056 15.6218 14.4214C15.5757 14.3932 15.5633 14.3931 15.5633 14.3524C15.5633 14.331 15.5485 14.2875 15.5996 14.2859C15.6796 14.2833 15.8481 14.3529 15.9084 14.3857C15.9559 14.4114 16.0078 14.4226 16.0537 14.4522C16.1015 14.483 16.1502 14.5111 16.1991 14.5409" stroke="#CCCCCC" stroke-linecap="round"/>
<path d="M8.82144 13.9693C8.85407 13.7842 8.91211 13.5945 9.01899 13.4733C9.0547 13.4328 9.05698 13.4206 9.0971 13.4276C9.11819 13.4314 9.16357 13.4243 9.15631 13.475C9.14495 13.5542 9.04709 13.7081 9.00441 13.7618C8.97077 13.8041 8.9508 13.8532 8.91365 13.8933C8.87505 13.935 8.83892 13.9781 8.80106 14.021" stroke="#CCCCCC" stroke-linecap="round"/>
<path d="M11.9903 10.5795C11.8276 10.4856 11.6692 10.3661 11.5918 10.2243C11.566 10.1768 11.5553 10.1705 11.5756 10.1352C11.5863 10.1167 11.5952 10.0716 11.6404 10.0958C11.7109 10.1336 11.822 10.2781 11.8579 10.3366C11.8861 10.3827 11.9255 10.4183 11.9505 10.4669C11.9764 10.5174 12.0046 10.5661 12.032 10.6164" stroke="#CCCCCC" stroke-linecap="round"/>
<path d="M15.3523 8.79047C15.2584 8.62774 15.1809 8.44511 15.1848 8.28356C15.1862 8.22957 15.1801 8.21874 15.2153 8.19837C15.2339 8.18766 15.2641 8.15308 15.2911 8.19657C15.3333 8.26456 15.3573 8.44533 15.3591 8.51389C15.3605 8.56793 15.3768 8.6184 15.3741 8.67301C15.3714 8.72975 15.3714 8.78598 15.37 8.84321" stroke="#CCCCCC" stroke-linecap="round"/>
</g>
<defs>
<clipPath id="clip0">
<rect width="25" height="25.4924" fill="white" transform="matrix(1 0 0 -1 0 25.4924)"/>
</clipPath>
</defs>
</svg>
